<svg xmlns="http://www.w3.org/2000/svg" viewBox="0 0 708.39 763.42"><defs><style>.cls-1{fill:#020202;}.cls-2{fill:#fcd824;}.cls-3{fill:#f1f90e;}.cls-4{fill:#fbed23;}.cls-5{fill:#e82226;}.cls-6{fill:#080706;}.cls-7{fill:#030303;}.cls-8{fill:#0d0806;}.cls-9{fill:#151106;}.cls-10{fill:#100e07;}.cls-11{fill:#675c0f;}.cls-12{fill:#f8f9f9;}.cls-13{fill:#f1f3f3;}.cls-14{fill:#ec2226;}</style></defs><title>Asset 8@</title><g id="Layer_2" data-name="Layer 2"><g id="Layer_1-2" data-name="Layer 1"><path class="cls-1" d="M471.19,275.78c4.63-2.41,7.28-5.84,10.22-8.84q39.46-40.4,78.86-80.88c7-7.16,7.05-7.24,15.58-1.8,38.75,24.69,78.07,48.53,114.5,76.67,5,3.87,10,7.76,14.73,12s4.47,6.73-.64,10.36c-8.41,6-17.07,11.61-25.71,17.26-29.64,19.42-55.65,43.41-83,65.78a4.59,4.59,0,0,0-1.95,3.5c1.73,3.1,5.3,3.45,8.23,4.77,23.64,10.71,47.12,21.75,70.3,33.42,6.55,3.3,12.78,7.06,18,13.57-30.86,20.67-63.75,37.34-95.88,58.35,23.72,13.58,47.31,24.44,68,40.91-4.31,4-9,6.36-13.57,9-42.68,24.71-83.4,52.46-124.36,79.85-4.58,3.07-7.08,6.78-7.94,11.94-3.2,19.14-10.58,36.36-23.5,51-3.16,3.59-3.88,7.17-2,11.87C498,701,500,718.59,501.38,736.22c.49,6.32.33,12.68-1.8,18.78-2.42,6.94-6.69,9.45-13.84,8A38.21,38.21,0,0,1,464.33,751c-13.59-15.09-27.36-30.08-38.21-47.37-2.9-4.61-6.3-7.06-11.82-7.83-20.43-2.87-40.8-6.19-61.19-9.37s-40.47.84-60.45,4.55c-3.06.57-5.29,2.47-7.56,4.54C263.84,714.89,239,728,211.92,737.26a56,56,0,0,1-22.62,3.13c-11.22-.88-15.91-8.81-10.58-18.79,6.6-12.37,14.43-23.94,24.57-33.82,8.18-8,8.86-7.07,1.58-16.8-16.76-22.37-24.92-46.84-21.8-75.62,2.59-23.94,6.25-47.46,12.63-70.62,4.8-17.44,5.46-35.5,8-53.28,1.35-9.58,2.83-19.14,5.73-28.34,2.4-7.66,1.09-13.53-5.41-18.46-4.23-3.21-8-7.07-12-10.55a218.33,218.33,0,0,1-23.57-24.41c-16.86-19.9-19.08-42.5-9.84-65.57a289.36,289.36,0,0,0,15.82-53.41c1.88-9.83,5.78-19.09,10.11-28.12,1.11-2.32,3.18-4.33,2.73-7.93-13.06-1.15-26.16-2.57-39.22-4.34A332.36,332.36,0,0,1,35.48,194.39a119.24,119.24,0,0,1-28.16-20.5,39.46,39.46,0,0,1-4.67-5.19C-2.13,162-.47,157.51,7.86,156.13a254.88,254.88,0,0,1,35.73-3.81c46.32-1,91.6,5.57,136.07,18.3,15.66,4.49,31.42,8.71,47,13.5,7.41,2.28,14.34,2.35,21.31-1,32.13-15.62,66.44-18.56,101.38-16.77,15,.77,29.61,4.24,43.84,9.18,10.86,3.77,11.09,3.8,16.52-5.67a511.3,511.3,0,0,1,49.81-72.33c31-37.3,67.31-68.15,110.31-90.84A85,85,0,0,1,583.63.93c6.74-2.15,8.34-.81,8.11,6.51a53.39,53.39,0,0,1-1.47,9.85C582.61,51.51,568,82.6,548.61,111.74a768.13,768.13,0,0,1-86.23,107.37c-5.63,5.86-7.14,10.7-3.1,18.38C465.43,249.17,468.48,262.14,471.19,275.78Z"/><path class="cls-2" d="M201.32,533.05c2.23,21,7.86,40.22,11.5,59.81.92,4.9,1.35,9.89,2.23,14.8.72,4,2.65,6.87,7.41,6.18a13.62,13.62,0,0,1,9.54,2c.81.5,2.3,1.09,2.8.72,6.39-4.77,14.13-.83,20.75-3.34a22.78,22.78,0,0,1,7.78-1.3c1.32,0,3,.16,3.9-.52,5.11-3.77,5.74-10.82,11-14.8,2.53-1.92,1.2-6-.19-8.48-4.4-7.69-2.79-15.39-1.13-23.26,4-18.77,4.7-37.64,1.13-56.56-1.14-6.07-2.34-12.17-7.49-17.34a54,54,0,0,0,0,7.2,220.58,220.58,0,0,1-.81,66.69,40.78,40.78,0,0,0,1.7,21.61c1.37,3.69,2.93,7.78-2.71,9.85-1.68.62-1.72,2.64-2.3,4.19-2.13,5.75-2.23,5.83-8.44,3.18-1.36-.58-2.73-1.2-3.44,0-4.16,7.18-8.62,3.75-13.16,0-1.31,1.53-2.39,2.73-3.4,4-2.32,2.86-5,4-7,.14-1.77-3.27-3.49-3.21-6.25-1.48-2.08,1.3-4.46.59-4.33-1.94,1-20.08-7.29-38.44-10.51-57.74-4.45-26.68-3.19-53.07,1.24-79.51,1.1-6.56,2-13.18,3.63-19.63,2.29-9.29,3.07-9.45,11-4.6,2.55,1.55,5.13,3.08,7.78,4.45a9.94,9.94,0,0,0,3.07.38c-.67-4.1-4.3-5.27-6.74-7.31-14.31-12-29.16-23.3-42.08-36.87a198.54,198.54,0,0,1-13.53-16c-2.7-3.5-3.43-5.95-.16-10.26,11.45-15.09,9.17-36.53-4.93-49.59-2.89-2.68-3.21-4.89-1.56-7.71,7.24-12.38,9-26.29,11.6-40,3.67-19.36,11.59-36.76,24.74-51.62a25.8,25.8,0,0,0,2.31-3.25c.13-.19-.08-.61-.22-1.45-2.77-2.26-5.57-.33-7.69,1.25-6.34,4.71-13.41,5.37-20.9,4.92-19.67-1.16-38.84-5.66-58.26-8.39-15.31-2.16-24.62-10.13-31.2-23.18-4.79-9.49-10.91-18.32-14.55-28.4-.88-2.43-2.2-4.88-.55-8.51,53.9.62,105.18,15.89,155.58,29.77,2.68,4-2.29,5.63-.06,8.28.82,1,1.89.61,2.66.17,13.67-7.7,27.67-14.72,43-18.42,37.84-9.14,75.66-11.37,113.31,1.11,2.52.83,5,1.81,7.51,2.71,3,1.07,4.21,2.89,3.07,6.14-1,2.91-3.13,5.85-.54,9.67,4.23-1.79,5.66-5.66,7.61-8.9a953.7,953.7,0,0,1,55.08-82.12c17.61-23.41,38.73-43,61.6-61,4.85-3.81,6.74-3.21,7.89,2.91,4.55,24.13,5,48.33,0,72.47-1.22,5.91-4.36,11.11-7.66,16.16-13.17,20.18-28.88,38.27-45.26,55.84-10.45,11.2-20.55,22.74-30.7,34.23-2.3,2.6-5.08,5.09-5.64,8.81a10.35,10.35,0,0,0,2.25,1c3.08.33,5.1-4.26,8.1-2.4,3.18,2,4.08,5.92,5.45,9.29,10.94,26.83,13.42,54.71,11,83.37-1.75,21.26-4,42.44-6.48,63.61-1.73,14.61.84,28.5,6.34,42,3.64,8.94,6.95,18,10.75,26.89,2.14,5,1.85,8.61-3.06,11.89a41,41,0,0,0-12.95,13.69c-3.92,6.87-2.67,9.82,5,11,5.95.89,12,1.13,17.87-.59,4.44-1.31,6.49-.15,8.11,4.31,4.77,13.18,8,26.78,12.15,40.13,1.1,3.53-.21,5.65-2.54,7.86-5.8,5.51-11.58,11-17.23,16.7-2.25,2.26-6,4.24-4.62,8.15,1.45,4.28,5.82,3.73,9.34,4.16,6.94.85,13.9,1.51,21.61,0,2.84,29,1.08,56.51-15.17,81.13C485.18,678.25,468,686,449,690.25c-14.68,3.29-29.2.87-43.72-1-12.22-1.52-24.47-3-36.58-5.21-22-4-43.81-1.42-65.68,1-14.22,1.6-28.5,4.27-42.71,4-32.68-.57-59-21.89-68.16-53.54A105.6,105.6,0,0,1,188.5,601c1.05-22,5.33-43.58,10.61-64.94C199.26,535.48,199.86,535,201.32,533.05Z"/><path class="cls-2" d="M502.65,484.15c16.8-20.38,32.65-39.6,49.16-59.6l-48-16.36c-9.45-3.21-18.9-6.38-28.33-9.63-8.24-2.83-8.35-2.88-7.39-11.88,1.38-12.9,3.11-25.77,4.45-38.67,2-18.85,5.09-37.69,1.52-56.67-.64-3.44.8-5.58,3-7.88q45.24-47.29,90.32-94.74c2.57-2.71,4.49-4.05,8.27-1.37q62,43.82,124.15,87.35c.48.34.65,1.12,1.39,2.47l-118,90.89c32.47,17.73,64.67,33.85,97.91,51.68-10.51,7.61-21.12,13.4-31.27,19.83-10.68,6.78-21.49,13.34-32.24,20-10.37,6.43-20.73,12.88-32.18,20l68.53,39.11-73.27,45.87-17.05-29c-1.35-2.29.23-3.68,1.52-5.18l13-15.16Z"/><path class="cls-3" d="M568.27,520.43l-50.9,49.35c-2.37-9.85-4.22-17.8-6.2-25.72-7.38-29.44-17.8-57.87-28.72-86.13-6.69-17.31-10.32-35.48-16.25-54.79a815.14,815.14,0,0,1,77.88,24.45c-1.27,5.12-4.35,7.36-6.76,10-11.4,12.6-22.92,25.09-34.3,37.72-7.26,8.06-5.53,14.85,4.87,18.91,16.74,6.53,33.76,12.34,50.11,19.85C561.25,515.6,565,516.38,568.27,520.43Z"/><path class="cls-4" d="M497,751.73c-4.1-5-4.07-11.14-6.14-16.6-.94-2.47-1.42-5.12-2.37-7.59-.73-1.9-2.09-3.91-4.4-2.89-2.71,1.19-.95,3.31-.25,5,3.89,9.5,7.05,19.18,8,29.49-4.09,1-4.91-1.89-6.14-4.11-3.7-6.69-7.35-13.4-11.06-20.08a43.88,43.88,0,0,0-3.14-5.08c-.76-1-1.82-2.12-3.36-1.39-1.92.91-2,2.57-1.11,4.14,2.65,4.6,5.46,9.12,8.19,13.68,1.53,2.55,3,5.1,5,8.49-3.14.29-4.77-1.15-6.32-2.47a176.64,176.64,0,0,1-37.74-44.78c-3.47-5.86-2.92-6.9,3.67-7.12,13.55-.46,26.11-4.16,38.28-10,7.31-3.47,7.92-3.11,11,4.46C496.6,713.16,498.14,732.28,497,751.73Z"/><path class="cls-4" d="M180.23,728.17c8.43-16.47,18.42-29.4,31.5-39.93,2.84-2.28,6-3.22,9.26-1.51,16.43,8.59,34.11,10.2,52.44,9.18-6.41,14.75-57.09,40-81.2,39.92,6.08-4.57,11-8.24,15.89-11.93,1.59-1.2,3.13-2.46,4.75-3.63,1.25-.9,1.81-2.33,1.12-3.43a3,3,0,0,0-4.39-.67c-2.45,1.69-4.78,3.57-7.1,5.45-5.6,4.53-11.18,9.1-18.42,15,.94-6.67,3.9-9.63,6.85-12.5,2.13-2.08,4.63-3.78,6.81-5.82,1.37-1.28,3.47-2.88,1.37-4.89-1.69-1.61-2.89.47-4,1.47C190.63,718.83,186.22,722.81,180.23,728.17Z"/><path class="cls-5" d="M165.06,379.92c-3.46-3.64-3.47-8.51-4.13-12.94a94.61,94.61,0,0,1-.28-28.85c.82-5.24,3.45-6,7.44-2.69.26.21.5.44.74.67C180.3,346.89,178.34,370.29,165.06,379.92Z"/><path class="cls-1" d="M329.43,285.94c-.12-19,10.08-29.95,28.06-30.12,16.32-.15,28.55,12.26,28.75,29.17.21,17.84-10.49,29-28.07,29.2C340.29,314.41,329.54,303.85,329.43,285.94Z"/><path class="cls-6" d="M435.39,499.26c3.5,3.07,2.24,6.82,1.49,10.15-6.62,29.3-13.57,58.48-32.3,83.09a39.92,39.92,0,0,0-5,8.61c-.89,2.1-2.3,4.49,1.6,6.28,2.79,1.28,1.67,4.83.34,7.13-1.71,2.94-4.76,6.32-7.85,5-7.81-3.43-14.55,2-21.9,1.55-2.13-.12-4.68,1.55-6.72.23-4.35-2.82-9.7-2.11-13.79-3.66-6.88-2.61-12.71-8.35-18.41-13.42-1.68-1.5-.65-5.18.41-7.67,4.18-9.76,3.95-20.15,4.63-30.43a264.66,264.66,0,0,1,12.55-65.55c1.72-5.21,3.17-10.78,8.26-14.17,1.89,2.27.7,4,.11,5.89A313.07,313.07,0,0,0,344.1,577.6a56.35,56.35,0,0,1-3.6,17.52c-1.3,3.56-2.79,7.49,3.7,7.27,1.89-.07,2.74,1.24,3.67,2.78,4.87,8.1,4.92,8.07,13.22,3.36.92,1.29,1.83,2.65,2.83,3.94,2.29,3,4.77,3.36,7.45.47.87-.93,1.78-1.83,2.67-2.74,5.26,7.49,10.13-3.41,15.57-.34,2,1.12,4.07-.71,3.46-3.19-1.51-6.22,1.2-11,4.59-15.72,18-24.74,27.4-53.05,34.36-82.38.62-2.59,1.24-5.17,2-7.73C434.13,500.32,434.76,499.94,435.39,499.26Z"/><path class="cls-7" d="M191.57,287A30.68,30.68,0,0,1,202.1,264.4c9-8,20.07-6.14,26.12,4.29,4.95,8.53,5.56,17.76,2.88,27-3.45,11.89-14,18.65-24.93,16.64C196.81,310.63,191.1,301.68,191.57,287Z"/><path class="cls-8" d="M365.63,347.93c.31-19,12.88-31.92,30.92-31.82,17.3.11,31.69,14.62,31.56,31.83-.13,17.67-13.53,30.43-31.44,29.95C377.21,377.38,365.33,365.91,365.63,347.93Z"/><path class="cls-9" d="M229.4,345c2.75-.33,3.78,1.09,5,2.15,4.34,3.87,9.21,5.14,14.7,2.87a23.91,23.91,0,0,1,18.42.11c10.85,4.22,20.73,3.48,29.34-5.1.56-.55,1.71-.51,3-.86,1.31,4.53-1.27,7.25-4,9.47-6.2,5.06-13.21,7.52-21.29,5.15-9.62-2.83-19-4.49-29.22-1.45C237.49,359.71,231.67,354.45,229.4,345Z"/><path class="cls-10" d="M264.69,319.75c-6.79,7.58-9.95,8.5-14.34,4.63-1.21-1.07-2.54-2.23-2.28-4.12.29-2.13,2.14-2.18,3.69-2.58A15.48,15.48,0,0,1,264.69,319.75Z"/><path class="cls-11" d="M177.59,223c4.65-3.5,8.46-3,12.67-3C185.8,224.61,185.8,224.62,177.59,223Z"/><path class="cls-12" d="M361.48,280.36c-.07,7-4.87,11.68-12.13,11.8a12.22,12.22,0,0,1-12.64-12.56c.05-7.38,5.52-13.41,12.08-13.33C355.77,266.36,361.56,272.79,361.48,280.36Z"/><path class="cls-13" d="M208.31,281.64c.13-7.1,3.64-12,8.29-11.52,3.62.36,7.11,5,7.22,9.62.14,6.18-3.83,11.68-8.48,11.76C210.46,291.58,208.18,288.39,208.31,281.64Z"/><path class="cls-14" d="M395.33,374.67c-14.34.11-24.68-10.88-25-26.55-.27-14,10.33-24.78,24.18-24.66a27.21,27.21,0,0,1,26.76,26.66C421.67,363.5,410,374.55,395.33,374.67Z"/></g></g></svg>